<svg
   width="48.055706mm"
   height="38.773663mm"
   viewBox="0 0 48.055706 38.773663"
   version="1.1"
   inkscape:version="1.1.1 (3bf5ae0d25, 2021-09-20)"
   xmlns:inkscape="http://www.inkscape.org/namespaces/inkscape"
   xmlns:sodipodi="http://sodipodi.sourceforge.net/DTD/sodipodi-0.dtd"
   xmlns="http://www.w3.org/2000/svg"
   >
  <defs
     id="defs970" />
  <g
     inkscape:label="Layer 1"
     inkscape:groupmode="layer"
     id="layer1"
     transform="translate(-21.416599,-16.841019)">
    <g
       id="g2420"
       transform="matrix(0.35277777,0,0,-0.35277777,-60.850965,262.41855)">
      <g
         id="g123"
         transform="translate(262.8264,644.6307)">
        <path
           d="m 0,0 c -1.533,-1.095 -3.176,-1.938 -4.927,-2.529 -1.752,-0.592 -3.744,-0.887 -5.978,-0.887 -3.986,0 -7.095,1.258 -9.328,3.777 -2.234,2.518 -3.35,5.901 -3.35,10.15 v 10.051 h -6.044 v 7.817 h 6.044 v 8.606 h 9.985 v -8.606 h 8.737 v -7.817 h -8.737 V 10.511 c 0,-1.621 0.361,-2.891 1.084,-3.81 0.722,-0.92 1.849,-1.38 3.383,-1.38 0.963,0 1.882,0.164 2.759,0.493 0.875,0.328 1.883,0.842 3.022,1.543 z"
           style="fill:#1e1f1d;fill-opacity:1;fill-rule:nonzero;stroke:none"
           id="path125" />
      </g>
      <g
         id="g127"
         transform="translate(287.8283,651.2986)">
        <path
           d="m 0,0 c 1.422,1.554 2.135,3.623 2.135,6.208 0,2.584 -0.713,4.652 -2.135,6.208 -1.424,1.554 -3.186,2.332 -5.289,2.332 -2.102,0 -3.865,-0.778 -5.288,-2.332 C -12,10.86 -12.711,8.792 -12.711,6.208 -12.711,3.623 -12,1.554 -10.577,0 c 1.423,-1.555 3.186,-2.333 5.288,-2.333 2.103,0 3.865,0.778 5.289,2.333 m -14.059,-8.113 c -2.737,1.357 -4.938,3.284 -6.602,5.78 -1.664,2.497 -2.496,5.343 -2.496,8.541 0,3.196 0.832,6.043 2.496,8.54 1.664,2.496 3.865,4.423 6.602,5.781 2.737,1.357 5.661,2.036 8.77,2.036 3.022,0 5.902,-0.679 8.639,-2.036 2.736,-1.358 4.96,-3.285 6.668,-5.781 1.708,-2.497 2.562,-5.344 2.562,-8.54 0,-3.198 -0.811,-6.044 -2.431,-8.541 C 8.528,-4.829 6.35,-6.756 3.613,-8.113 0.875,-9.47 -2.092,-10.15 -5.289,-10.15 c -3.109,0 -6.033,0.68 -8.77,2.037"
           style="fill:#1e1f1d;fill-opacity:1;fill-rule:nonzero;stroke:none"
           id="path129" />
      </g>
      <g
         id="g131"
         transform="translate(333.3,651.7254)">
        <path
           d="m 0,0 c 1.554,1.488 2.332,3.459 2.332,5.912 0,2.277 -0.657,4.161 -1.971,5.65 -1.314,1.488 -3.088,2.233 -5.321,2.233 -1.358,0 -2.792,-0.482 -4.303,-1.445 -1.511,-0.964 -2.967,-2.343 -4.368,-4.139 v -7.62 c 2.539,-1.883 4.948,-2.824 7.226,-2.824 2.715,0 4.85,0.744 6.405,2.233 m 5.551,20.003 c 2.189,-1.423 3.941,-3.383 5.255,-5.879 1.314,-2.497 1.971,-5.278 1.971,-8.343 0,-3.066 -0.713,-5.846 -2.135,-8.343 -1.424,-2.496 -3.394,-4.457 -5.913,-5.879 -2.518,-1.423 -5.353,-2.136 -8.506,-2.136 -3.679,0 -6.964,1.249 -9.854,3.745 v -9.328 h 5.978 v -7.818 h -21.876 v 7.818 h 6.11 v 29.627 h -6.11 v 7.817 h 15.898 v -5.978 c 1.751,2.19 3.678,3.876 5.78,5.059 2.103,1.182 4.205,1.773 6.307,1.773 2.54,0 4.904,-0.712 7.095,-2.135"
           style="fill:#1e1f1d;fill-opacity:1;fill-rule:nonzero;stroke:none"
           id="path133" />
      </g>
      <g
         id="g135"
         transform="translate(369.4203,638.1733)">
        <path
           d="m 0,0 h -9 v 48.952 h -53.647 v 9 H 0 Z"
           style="fill:#d91842;fill-opacity:1;fill-rule:nonzero;stroke:none"
           id="path137" />
      </g>
    </g>
  </g>
</svg>
